<?xml version="1.0" standalone="no"?><!DOCTYPE svg PUBLIC "-//W3C//DTD SVG 1.1//EN" "http://www.w3.org/Graphics/SVG/1.1/DTD/svg11.dtd"><svg t="1654048681616" class="icon" viewBox="0 0 1024 1024" version="1.1" xmlns="http://www.w3.org/2000/svg" p-id="963" xmlns:xlink="http://www.w3.org/1999/xlink" width="200" height="200"><defs><style type="text/css">@font-face { font-family: "feedback-iconfont"; src: url("//at.alicdn.com/t/font_1031158_u69w8yhxdu.woff2?t=1630033759944") format("woff2"), url("//at.alicdn.com/t/font_1031158_u69w8yhxdu.woff?t=1630033759944") format("woff"), url("//at.alicdn.com/t/font_1031158_u69w8yhxdu.ttf?t=1630033759944") format("truetype"); }
</style></defs><path d="M639.9 31.9c7.8 10.4 14.3 21.6 19.4 33.7 8.4 19.8 12.6 40.7 12.6 62.3 0 10.9-1.1 21.5-3.2 32h163.2v704h-640v-704h163.2c-2.1-10.5-3.2-21.1-3.2-32 0-21.6 4.2-42.5 12.6-62.3 5.1-12.1 11.6-23.3 19.4-33.7h-320v960h896v-960h-320z" p-id="964"></path><path d="M511.9 223.9c41.8 0 77.4-26.7 90.5-64 3.5-10 5.5-20.8 5.5-32 0-53-43-96-96-96s-96 43-96 96c0 11.2 1.9 22 5.5 32 13.1 37.3 48.7 64 90.5 64zM287.9 351.9h448v128h-448zM287.9 607.9h448v128h-448z" p-id="965"></path></svg>