<?xml version="1.0" standalone="no"?><!DOCTYPE svg PUBLIC "-//W3C//DTD SVG 1.1//EN" "http://www.w3.org/Graphics/SVG/1.1/DTD/svg11.dtd"><svg t="1654048530902" class="icon" viewBox="0 0 1024 1024" version="1.1" xmlns="http://www.w3.org/2000/svg" p-id="963" xmlns:xlink="http://www.w3.org/1999/xlink" width="200" height="200"><defs><style type="text/css">@font-face { font-family: "feedback-iconfont"; src: url("//at.alicdn.com/t/font_1031158_u69w8yhxdu.woff2?t=1630033759944") format("woff2"), url("//at.alicdn.com/t/font_1031158_u69w8yhxdu.woff?t=1630033759944") format("woff"), url("//at.alicdn.com/t/font_1031158_u69w8yhxdu.ttf?t=1630033759944") format("truetype"); }
</style></defs><path d="M511.9 159.9c38.5 0 74.6 15 101.8 42.2 27.2 27.2 42.2 63.4 42.2 101.8s-15 74.6-42.2 101.8c-27.2 27.2-63.4 42.2-101.8 42.2s-74.6-15-101.8-42.2c-27.2-27.2-42.2-63.4-42.2-101.8s15-74.6 42.2-101.8c27.1-27.2 63.3-42.2 101.8-42.2m0-128c-150.2 0-272 121.8-272 272s121.8 272 272 272 272-121.8 272-272-121.8-272-272-272zM703.9 735.9h-384l-32-128h448z" p-id="964"></path><path d="M884.3 959.9H139.4l-75.5-384h129.2l51.2 256h535.1l51.2-256h130.3z" p-id="965"></path></svg>